<svg width="{{ svg_width }}" height="{{ svg_height }}" viewBox="0 0 100 100"  fill="none">
<g transform="translate(0.000000,100.000000) scale(0.100000,-0.100000)"
fill="#53377A" stroke="none">
<path d="M449 847 c-19 -7 -101 -48 -182 -90 -80 -42 -157 -77 -171 -77 -14 0
-28 -5 -31 -10 -11 -18 15 -40 46 -40 39 0 103 -23 243 -86 65 -30 123 -54
127 -54 5 0 30 15 56 34 27 19 113 60 193 93 116 46 145 62 145 77 0 16 -33
33 -170 89 -93 38 -181 71 -195 73 -14 2 -41 -2 -61 -9z m207 -84 c74 -31 134
-62 134 -69 0 -6 -37 -26 -82 -44 -46 -18 -117 -51 -159 -73 l-76 -41 -149 68
c-82 38 -151 70 -153 72 -5 4 255 129 284 137 46 11 74 4 201 -50z"/>
<path d="M136 501 c-7 -11 48 -41 76 -41 20 0 156 -66 220 -106 52 -33 79 -30
183 20 83 40 124 54 243 86 42 11 57 35 27 46 -23 9 -192 -43 -294 -92 l-94
-44 -86 44 c-145 75 -260 111 -275 87z"/>
<path d="M132 319 c2 -6 40 -23 84 -38 43 -15 118 -50 166 -79 47 -29 98 -52
112 -52 15 0 63 17 109 39 79 37 163 67 255 91 25 6 42 17 42 25 0 38 -181 -5
-319 -75 -33 -16 -70 -30 -81 -30 -11 0 -60 20 -109 44 -139 70 -270 108 -259
75z"/>
</g>
</svg>
